<!DOCTYPE svg PUBLIC "-//W3C//DTD SVG 1.1//EN" "http://www.w3.org/Graphics/SVG/1.1/DTD/svg11.dtd">
<!-- Uploaded to: SVG Repo, www.svgrepo.com, Transformed by: SVG Repo Mixer Tools -->
<svg version="1.1" id="Layer_1" xmlns="http://www.w3.org/2000/svg" xmlns:xlink="http://www.w3.org/1999/xlink" viewBox="0 0 390.271 390.271" xml:space="preserve" width="800px" height="800px" fill="#000000">
<g id="SVGRepo_bgCarrier" stroke-width="0"/>
<g id="SVGRepo_tracerCarrier" stroke-linecap="round" stroke-linejoin="round"/>
<g id="SVGRepo_iconCarrier"> <g> <rect x="21.657" y="105.729" style="fill:#00ff80;" width="346.828" height="30.901"/> <rect x="21.657" y="285.64" style="fill:#00ff80;" width="346.828" height="30.901"/> </g> <path style="fill:#400080;" d="M59.604,263.984h198.335v-28.186H96.97C79.127,235.798,64.517,247.693,59.604,263.984z"/> <circle style="fill:#FFFFFF;" cx="325.172" cy="220.606" r="10.279"/> <path style="fill:#400080;" d="M257.939,83.491V55.305H96.97c-17.907,0-32.517,11.895-37.366,28.186 C59.604,83.491,257.939,83.491,257.939,83.491z"/> <circle style="fill:#FFFFFF;" cx="325.172" cy="40.695" r="10.279"/> <g> <path style="fill:#400040;" d="M379.345,0.032c-5.947,0-10.861,4.848-10.861,10.861v72.598h-88.824V45.026 c0-5.947-4.848-10.861-10.861-10.861H97.034c-29.802,0-54.174,21.657-59.604,49.842H21.657V10.893 c0-5.947-4.848-10.861-10.861-10.861S0,4.881,0,10.893v368.485c0,5.947,4.848,10.861,10.861,10.861s10.861-4.848,10.861-10.861 v-41.18h346.828v41.18c0,5.947,4.848,10.861,10.861,10.861c5.947,0,10.861-4.848,10.861-10.861V10.893 C390.206,4.881,385.358,0.032,379.345,0.032z M368.549,316.541H21.657V285.64h346.828v30.901H368.549z M257.939,263.984H59.604 c4.848-16.291,19.523-28.186,37.366-28.186h160.97V263.984z M368.549,263.984h-88.889v-39.046c0-5.947-4.848-10.861-10.861-10.861 H97.034c-29.802,0-54.174,21.657-59.604,49.842H21.657V158.287h346.828v105.697H368.549z M368.549,136.63H21.657v-30.901h346.828 v30.901H368.549z M97.034,55.822h160.97v28.186h-198.4C64.517,67.782,79.127,55.822,97.034,55.822z"/> <path style="fill:#400040;" d="M325.172,253.123c17.907,0,32-14.61,32-32c0-17.907-14.61-32-32-32c-17.907,0-32,14.61-32,32 S307.265,253.123,325.172,253.123z M325.172,210.327c5.947,0,10.279,4.848,10.279,10.279c0,5.947-4.848,10.279-10.279,10.279 c-5.947,0-10.279-4.848-10.279-10.279C314.893,214.659,319.224,210.327,325.172,210.327z"/> <path style="fill:#400040;" d="M325.172,72.63c17.907,0,32-14.61,32-32c0-17.907-14.61-32-32-32c-17.907,0-32,14.61-32,32 C293.172,58.537,307.265,72.63,325.172,72.63z M325.172,30.352c5.947,0,10.279,4.848,10.279,10.279s-4.848,10.279-10.279,10.279 c-5.947,0-10.279-4.848-10.279-10.279C314.893,35.265,319.224,30.352,325.172,30.352z"/> </g> </g>
</svg>